<svg id="Layer_1" data-name="Layer 1" xmlns="http://www.w3.org/2000/svg" viewBox="0 0 594.22 304.97"><title>Logo</title><path d="M448.11,245.67c-12.78-8.64-34.89,4.47-48.57,14.5A381.79,381.79,0,0,0,394,305h99.54c-.83-18.55-3.25-40.65-5.93-60.86C473.88,249,457.79,252.22,448.11,245.67Z"/><path d="M448.11,236.74c9.68,6.54,25.77,3.33,39.51-1.57-3.21-24.3-6.79-45.85-8.37-55.11a2.75,2.75,0,0,0-4.34-1.79c-15.32,11.46-44.46,14.09-49.77,14.48a2.74,2.74,0,0,0-1.52.6c-12.45,10.17-19.81,35.12-24.08,57.88C413.22,241.2,435.33,228.09,448.11,236.74Z"/><path d="M80.28,166.63V112.55H50.08v54.08H0V5.79H50.08V59.4h30.2V5.79h50V166.63Z"/><path d="M167.11,143.1q-23.18-24.93-23.18-59.25T167.11,24.6Q190.51,0,222.7,0q32.51,0,55.59,24.6,23.29,24.82,23.29,59.25T278.29,143.1q-22.87,24.94-55.59,25Q190.3,168.05,167.11,143.1ZM244,106.43a31.83,31.83,0,0,0,8.79-22.58A32.07,32.07,0,0,0,244,61.06,28.27,28.27,0,0,0,222.7,51.8a28.83,28.83,0,0,0-21.39,9.26,32.8,32.8,0,0,0-8.68,22.79,32,32,0,0,0,8.68,22.58,27.79,27.79,0,0,0,21.39,9.7A27.06,27.06,0,0,0,244,106.43Z"/><path d="M391.41,155.39l-28.36-48.17v59.41H313.41V5.79h48.78l29.22,49.33L420.52,5.79H469.3V166.63H419.76V107.22Z"/><path d="M593.58,53H533.29V63.22h40.3V107h-40.3v11h60.5v48.64H483.42V5.79H593.58Z"/><path d="M34.45,278.77v25.1H.14V193.2H34.45v25.1l17.86-25.1H95.74L61.88,240.53l32.74,63.34H55.37L39.08,272.4Z"/><path d="M181.25,225.71H139.76v7h27.73v30.12H139.76v7.57H181.4v33.46H105.45V193.2h75.8Z"/><path d="M222.51,257.26,189.32,193.2h36.25l14.8,28.69,14.88-28.69h36.17l-33.18,64.06v46.61H222.51Z"/><path d="M366.09,262.06l20.56,27.64L384,292.42q-14.43,12.43-35.8,12.43-23,0-39.24-17-16.31-16.84-16.3-40.77T309,206.15q16.29-16.93,39.24-16.93,17.64,0,34.38,12.27l-18.83,30.67Q356.52,225,348.23,225a19.89,19.89,0,0,0-15.1,6.44,21.54,21.54,0,0,0-6.28,15.61q0,9.87,5.38,15.3,5.68,6,16,6Q359.89,268.35,366.09,262.06Z"/><path d="M501.68,304.85V193.2H536V304.85Zm30.8-111.65H550q18.75,0,31.24,13.59,13,13.82,13,30.38,0,19.7-13,33.6Q568.43,284.51,550,284.51H532.48V248.34H550a9.2,9.2,0,0,0,7.25-3.37,11.57,11.57,0,0,0,0-15.68,9.5,9.5,0,0,0-7.25-3.13H532.48Z"/></svg>