<svg aria-hidden="true" style="position: absolute; width: 0; height: 0; overflow: hidden;" version="1.1" xmlns="http://www.w3.org/2000/svg" xmlns:xlink="http://www.w3.org/1999/xlink">
<defs>
<symbol id="icon-arrow-left" viewBox="0 0 37 32">
<path  d="M14.115 31.219l-13.334-13.333c-0.483-0.482-0.781-1.149-0.781-1.886s0.299-1.403 0.781-1.886l13.334-13.334c0.483-0.483 1.149-0.781 1.886-0.781 1.473 0 2.667 1.194 2.667 2.667 0 0.736-0.298 1.403-0.781 1.886l-8.782 8.782h25.563c0.019-0.001 0.042-0.001 0.065-0.001 1.473 0 2.667 1.194 2.667 2.667s-1.194 2.667-2.667 2.667c-0.023 0-0.046-0-0.069-0.001l0.003 0h-25.563l8.781 8.781c0.483 0.483 0.781 1.149 0.781 1.886 0 1.473-1.194 2.667-2.667 2.667-0.736 0-1.403-0.298-1.886-0.781v0z"></path>
</symbol>
<symbol id="icon-arrow-right" viewBox="0 0 37 32">
<path  d="M23.219 31.219l13.334-13.334c0.483-0.482 0.781-1.149 0.781-1.886s-0.299-1.403-0.781-1.886l-13.334-13.333c-0.483-0.483-1.149-0.781-1.886-0.781-1.473 0-2.667 1.194-2.667 2.667 0 0.736 0.298 1.403 0.781 1.886l8.781 8.781h-25.562c-0.019-0.001-0.042-0.001-0.065-0.001-1.473 0-2.667 1.194-2.667 2.667s1.194 2.667 2.667 2.667c0.023 0 0.046-0 0.069-0.001l-0.003 0h25.563l-8.781 8.781c-0.483 0.483-0.781 1.149-0.781 1.886 0 1.473 1.194 2.667 2.667 2.667 0.736 0 1.403-0.298 1.886-0.781v0z"></path>
</symbol>
<symbol id="icon-facebook" viewBox="0 0 16 32">
<path d="M11.001 6.001h5v-6.001h-5c-3.865 0.004-6.997 3.135-7.001 6.999v3.001h-3.999v6.001h3.999v16.001h6.001v-16.001h5l1.001-6.001h-6.001v-3c0.008-0.549 0.451-0.992 1-0.999h0.001z"></path>
</symbol>
<symbol id="icon-heart" viewBox="0 0 35 32">
<path  d="M25.485 0c-3.632 0-6.765 2.955-8.205 6.042-1.45-3.086-4.576-6.042-8.21-6.042-5.009 0.003-9.069 4.063-9.070 9.072v0c0 10.187 10.277 12.858 17.28 22.928 6.619-10.008 17.28-13.067 17.28-22.928-0.002-5.011-4.064-9.072-9.075-9.072v0z"></path>
</symbol>
<symbol id="icon-home" viewBox="0 0 32 32">
<path  d="M32 19.271l-15.999-13.69-16.001 13.69v-5.582l16.001-13.69 15.999 13.69zM28.001 18.775v13.225h-8v-8.818h-8v8.818h-8v-13.225l12.001-9.921z"></path>
</symbol>
<symbol id="icon-info-circle" viewBox="0 0 32 32">
<path d="M16 0c-8.837 0-16 7.163-16 16s7.163 16 16 16c8.837 0 16-7.163 16-16v0c0-8.837-7.163-16-16-16v0zM16 7.096c1.497 0 2.71 1.213 2.71 2.71s-1.213 2.71-2.71 2.71c-1.497 0-2.71-1.213-2.71-2.71v0c0-1.497 1.213-2.71 2.71-2.71v0zM19.613 23.483c0 0.428-0.347 0.774-0.774 0.774h-5.677c-0.428 0-0.774-0.347-0.774-0.774v0-1.547c0-0.428 0.347-0.774 0.774-0.774v0h0.774v-4.13h-0.774c-0.428 0-0.774-0.347-0.774-0.774v0-1.549c0-0.428 0.347-0.774 0.774-0.774v0h4.13c0.428 0 0.774 0.347 0.774 0.774v6.451h0.774c0.428 0 0.774 0.347 0.774 0.774v0z"></path>
</symbol>
<symbol id="icon-instagram" viewBox="0 0 32 32">
<path  d="M16.002 2.883c4.276 0 4.781 0.019 6.463 0.094 1.069 0.011 2.089 0.212 3.030 0.57l-0.060-0.020c0.72 0.27 1.334 0.678 1.836 1.194l0.001 0.001c0.518 0.504 0.926 1.118 1.188 1.804l0.012 0.034c0.338 0.881 0.54 1.899 0.553 2.963l0 0.006c0.076 1.688 0.094 2.195 0.094 6.465s-0.019 4.781-0.094 6.465c-0.011 1.069-0.212 2.089-0.57 3.030l0.020-0.060c-0.27 0.72-0.677 1.334-1.194 1.835l-0.001 0.001c-0.504 0.517-1.117 0.926-1.802 1.188l-0.034 0.012c-0.881 0.337-1.901 0.538-2.965 0.55l-0.005 0c-1.688 0.076-2.195 0.094-6.465 0.094s-4.781-0.019-6.465-0.094c-1.069-0.011-2.089-0.212-3.030-0.57l0.060 0.020c-0.721-0.27-1.335-0.677-1.837-1.194l-0.001-0.001c-0.517-0.504-0.926-1.117-1.188-1.802l-0.012-0.034c-0.337-0.881-0.538-1.901-0.55-2.965l-0-0.005c-0.076-1.688-0.094-2.195-0.094-6.465s0.019-4.781 0.094-6.465c0.011-1.069 0.212-2.088 0.57-3.029l-0.020 0.060c0.271-0.721 0.678-1.335 1.194-1.837l0.001-0.001c0.504-0.518 1.118-0.926 1.804-1.188l0.034-0.012c0.881-0.337 1.901-0.538 2.965-0.55l0.005-0c1.682-0.076 2.188-0.094 6.464-0.094zM16.002 0.002c-4.344 0-4.887 0.018-6.595 0.094-1.401 0.028-2.731 0.298-3.961 0.77l0.080-0.027c-1.111 0.423-2.058 1.053-2.837 1.848l-0.001 0.001c-0.795 0.779-1.424 1.724-1.831 2.78l-0.018 0.054c-0.445 1.15-0.716 2.48-0.745 3.869l-0 0.012c-0.074 1.714-0.094 2.256-0.094 6.602s0.019 4.887 0.094 6.595c0.028 1.401 0.299 2.731 0.772 3.961l-0.027-0.080c0.424 1.111 1.053 2.058 1.848 2.837l0.001 0.001c0.779 0.794 1.723 1.421 2.778 1.827l0.053 0.018c1.15 0.445 2.48 0.715 3.869 0.743l0.012 0c1.706 0.076 2.258 0.094 6.595 0.094s4.889-0.019 6.595-0.094c1.401-0.028 2.731-0.298 3.961-0.77l-0.080 0.027c2.154-0.849 3.827-2.522 4.657-4.621l0.019-0.055c0.445-1.15 0.715-2.48 0.743-3.869l0-0.012c0.076-1.706 0.094-2.258 0.094-6.595s-0.019-4.887-0.094-6.595c-0.028-1.401-0.298-2.731-0.77-3.961l0.027 0.080c-0.408-1.116-1.033-2.067-1.83-2.843l-0.002-0.002c-0.778-0.793-1.722-1.421-2.776-1.827l-0.053-0.018c-1.15-0.445-2.48-0.716-3.869-0.745l-0.012-0c-1.712-0.081-2.258-0.098-6.602-0.098v0z"></path>
<path  d="M16.002 7.784c-4.542 0-8.224 3.682-8.224 8.224s3.682 8.224 8.224 8.224c4.542 0 8.224-3.682 8.224-8.224v0c0-4.542-3.682-8.224-8.224-8.224v0zM16.002 21.328c-2.945 0-5.333-2.387-5.333-5.333s2.387-5.333 5.333-5.333c2.945 0 5.333 2.387 5.333 5.333v0c0 0.002 0 0.005 0 0.008 0 2.945-2.387 5.333-5.333 5.333 0 0 0 0 0 0v0z"></path>
<path  d="M26.459 7.458c0 1.060-0.859 1.919-1.919 1.919s-1.919-0.859-1.919-1.919c0-1.060 0.859-1.919 1.919-1.919v0c1.060 0 1.919 0.859 1.919 1.919v0z"></path>
</symbol>
<symbol id="icon-minus" viewBox="0 0 130 32">
<path  d="M0 3.998v24.003c0.022 2.213 1.821 3.998 4.037 3.998 0.011 0 0.023-0 0.034-0h122.056c0.010 0 0.021 0 0.033 0 2.216 0 4.015-1.785 4.037-3.996l0-0.002v-24.003c-0.022-2.213-1.821-3.998-4.037-3.998-0.011 0-0.023 0-0.034 0h-122.056c-0.010-0-0.021-0-0.033-0-2.216 0-4.015 1.786-4.037 3.996l-0 0.002z"></path>
</symbol>
<symbol id="icon-mobile-menu" viewBox="0 0 49 32">
	<path id="rect-top" d="M0 0h49.231v7.385h-49.231v-7.385z"></path>
	<path id="rect-mid" d="M0 12.308h49.231v7.385h-49.231v-7.385z"></path>
	<path id="rect-bot" d="M0 24.615h49.231v7.385h-49.231v-7.385z"></path>
</symbol>
<symbol id="icon-plus" viewBox="0 0 32 32">
<path d="M31.001 12h-11v-11c-0.001-0.552-0.449-0.999-1.001-0.999 0 0 0 0 0 0h-6.005c-0.55 0.004-0.994 0.45-0.995 0.999v11h-11c-0.55 0.001-0.996 0.445-0.999 0.994v6c0.001 0.552 0.448 0.999 0.999 0.999h11v11c0.001 0.552 0.448 0.999 0.999 0.999h6c0.552-0.001 0.999-0.448 0.999-0.999v-10.994h11c0.552-0.001 0.999-0.448 0.999-0.999v-6.006c-0.004-0.549-0.449-0.993-0.998-0.995h-0z"></path>
</symbol>
<symbol id="icon-search" viewBox="0 0 32 32">
<path  d="M31.001 27.231l-7.573-6.446c-0.59-0.593-1.398-0.969-2.293-0.997l-0.005-0c1.784-2.082 2.87-4.808 2.87-7.787 0-6.627-5.372-12-12-12s-12 5.372-12 12c0 6.627 5.372 12 12 12 2.979 0 5.705-1.086 7.803-2.883l-0.016 0.014c0.028 0.901 0.404 1.709 0.997 2.298l0 0 6.447 7.572c0.496 0.643 1.267 1.053 2.134 1.053 1.485 0 2.689-1.204 2.689-2.689 0-0.867-0.41-1.638-1.047-2.129l-0.006-0.005zM11.993 20.003c-4.418 0-8-3.582-8-8s3.582-8 8-8c4.419 0 8 3.582 8 8v0c-0.002 4.414-3.578 7.993-7.992 7.997h-0z"></path>
</symbol>
<symbol id="icon-twitter" viewBox="0 0 39 32">
<path  d="M39.389 3.783c-1.351 0.618-2.918 1.065-4.562 1.262l-0.076 0.007c1.669-1.013 2.924-2.565 3.536-4.411l0.016-0.057c-1.477 0.891-3.196 1.571-5.026 1.944l-0.105 0.018c-1.479-1.566-3.568-2.54-5.886-2.54-4.468 0-8.090 3.622-8.090 8.090 0 0.645 0.076 1.273 0.218 1.875l-0.011-0.055c-6.731-0.347-12.652-3.547-16.62-8.404l-0.033-0.041c-0.686 1.164-1.092 2.564-1.092 4.059 0 2.792 1.414 5.253 3.565 6.708l0.029 0.018c-1.35-0.044-2.605-0.412-3.701-1.029l0.041 0.021v0.1c0 0.001 0 0.002 0 0.003 0 3.895 2.756 7.146 6.424 7.91l0.052 0.009c-0.638 0.181-1.37 0.285-2.127 0.285-0.004 0-0.008 0-0.012 0h0.001c-0.54-0.002-1.066-0.055-1.575-0.155l0.053 0.009c1.066 3.233 4.027 5.54 7.536 5.616l0.009 0c-2.728 2.158-6.218 3.462-10.012 3.462-0.007 0-0.014 0-0.021 0h0.001c-0.005 0-0.011 0-0.018 0-0.674 0-1.339-0.042-1.991-0.123l0.078 0.008c3.494 2.277 7.77 3.631 12.362 3.631 0.010 0 0.021 0 0.031-0h-0.002c0.046 0 0.101 0.001 0.155 0.001 12.612 0 22.836-10.224 22.836-22.836 0-0.055-0-0.109-0.001-0.164l0 0.008c0-0.354 0-0.701-0.023-1.046 1.593-1.153 2.933-2.54 4.002-4.124l0.037-0.058z"></path>
</symbol>
<symbol id="icon-keyboard_arrow_right" viewBox="0 0 24 24">
<path d="M8.578 16.594l4.594-4.594-4.594-4.594 1.406-1.406 6 6-6 6z"></path>
</symbol>
<symbol id="icon-keyboard_arrow_left" viewBox="0 0 24 24">
<path d="M15.422 16.594l-1.406 1.406-6-6 6-6 1.406 1.406-4.594 4.594z"></path>
</symbol>
<symbol id="icon-arrow-circle-right" viewBox="0 0 24 28">
<path d="M20.078 14c0-0.266-0.094-0.516-0.281-0.703l-7.078-7.078c-0.187-0.187-0.438-0.281-0.703-0.281s-0.516 0.094-0.703 0.281l-1.422 1.422c-0.187 0.187-0.281 0.438-0.281 0.703s0.094 0.516 0.281 0.703l2.953 2.953h-7.844c-0.547 0-1 0.453-1 1v2c0 0.547 0.453 1 1 1h7.844l-2.953 2.953c-0.187 0.187-0.297 0.438-0.297 0.703s0.109 0.516 0.297 0.703l1.422 1.422c0.187 0.187 0.438 0.281 0.703 0.281s0.516-0.094 0.703-0.281l7.078-7.078c0.187-0.187 0.281-0.438 0.281-0.703zM24 14c0 6.625-5.375 12-12 12s-12-5.375-12-12 5.375-12 12-12 12 5.375 12 12z"></path>
</symbol>
<symbol id="icon-arrow-circle-left" viewBox="0 0 24 28">
<path d="M20 15v-2c0-0.547-0.453-1-1-1h-7.844l2.953-2.953c0.187-0.187 0.297-0.438 0.297-0.703s-0.109-0.516-0.297-0.703l-1.422-1.422c-0.187-0.187-0.438-0.281-0.703-0.281s-0.516 0.094-0.703 0.281l-7.078 7.078c-0.187 0.187-0.281 0.438-0.281 0.703s0.094 0.516 0.281 0.703l7.078 7.078c0.187 0.187 0.438 0.281 0.703 0.281s0.516-0.094 0.703-0.281l1.422-1.422c0.187-0.187 0.281-0.438 0.281-0.703s-0.094-0.516-0.281-0.703l-2.953-2.953h7.844c0.547 0 1-0.453 1-1zM24 14c0 6.625-5.375 12-12 12s-12-5.375-12-12 5.375-12 12-12 12 5.375 12 12z"></path>
</symbol>
<symbol id="icon-circle-right" viewBox="0 0 32 32">
<path d="M16 0c-8.837 0-16 7.163-16 16s7.163 16 16 16 16-7.163 16-16-7.163-16-16-16zM16 29c-7.18 0-13-5.82-13-13s5.82-13 13-13 13 5.82 13 13-5.82 13-13 13z"></path>
<path d="M11.086 22.086l2.829 2.829 8.914-8.914-8.914-8.914-2.828 2.828 6.086 6.086z"></path>
</symbol>
<symbol id="icon-circle-left" viewBox="0 0 32 32">
<path d="M16 32c8.837 0 16-7.163 16-16s-7.163-16-16-16-16 7.163-16 16 7.163 16 16 16zM16 3c7.18 0 13 5.82 13 13s-5.82 13-13 13-13-5.82-13-13 5.82-13 13-13z"></path>
<path d="M20.914 9.914l-2.829-2.829-8.914 8.914 8.914 8.914 2.828-2.828-6.086-6.086z"></path>
</symbol>
<symbol id="icon-facebook2" viewBox="0 0 32 32">
<path d="M29 0h-26c-1.65 0-3 1.35-3 3v26c0 1.65 1.35 3 3 3h13v-14h-4v-4h4v-2c0-3.306 2.694-6 6-6h4v4h-4c-1.1 0-2 0.9-2 2v2h6l-1 4h-5v14h9c1.65 0 3-1.35 3-3v-26c0-1.65-1.35-3-3-3z"></path>
</symbol>
<symbol id="icon-cart" viewBox="0 0 39 32">
<path d="M2.344 0.167h8.89c1.212 0 2.195 0.983 2.195 2.195s-0.983 2.195-2.195 2.195h-8.89c-1.212 0-2.195-0.983-2.195-2.195s0.983-2.195 2.195-2.195z"></path>
<path d="M13.637 1.971l3.885 19.801c0.233 1.19-0.542 2.343-1.731 2.576s-2.343-0.542-2.576-1.731l-3.885-19.801c-0.233-1.19 0.542-2.343 1.731-2.576s2.343 0.542 2.576 1.731z"></path>
<path d="M15.517 20.032h16.438c1.212 0 2.195 0.983 2.195 2.195s-0.983 2.195-2.195 2.195h-16.438c-1.212 0-2.195-0.983-2.195-2.195s0.983-2.195 2.195-2.195z"></path>
<path d="M21.273 28.681c0 1.833-1.486 3.319-3.319 3.319s-3.319-1.486-3.319-3.319c0-1.833 1.486-3.319 3.319-3.319s3.319 1.486 3.319 3.319z"></path>
<path d="M32.945 28.681c0 1.833-1.486 3.319-3.319 3.319s-3.319-1.486-3.319-3.319c0-1.833 1.486-3.319 3.319-3.319s3.319 1.486 3.319 3.319z"></path>
<path d="M29.936 21.584l4.497-19.729c0.269-1.182 1.446-1.922 2.628-1.652s1.922 1.446 1.652 2.628l-4.497 19.729c-0.269 1.182-1.446 1.922-2.628 1.652s-1.922-1.446-1.652-2.628z"></path>
</symbol>
</defs>
</svg>

